<?xml version="1.0" standalone="no"?>
<!DOCTYPE svg PUBLIC "-//W3C//DTD SVG 20010904//EN"
 "http://www.w3.org/TR/2001/REC-SVG-20010904/DTD/svg10.dtd">
<svg version="1.0" xmlns="http://www.w3.org/2000/svg"
 width="1512" height="190" viewBox="0 654 1512 190"
 preserveAspectRatio="xMidYMid meet">

<g transform="translate(0.000000,1499.000000) scale(0.100000,-0.100000)"
fill="#000000" stroke="none">
<path d="M5799 7504 c-305 -405 -558 -743 -562 -750 -7 -12 34 -14 251 -14
l260 0 178 238 c98 130 235 312 305 404 l127 167 303 -404 304 -404 258 0
c168 -1 257 2 255 9 -5 15 -1112 1489 -1119 1489 -3 1 -255 -330 -560 -735z"/>
<path d="M370 8060 l0 -130 991 0 991 0 -7 37 c-10 57 -51 128 -92 162 -77 63
-39 61 -1005 61 l-878 0 0 -130z"/>
<path d="M2600 7466 l0 -726 223 2 222 3 0 443 c0 243 2 442 5 442 3 0 134
-199 291 -443 l285 -442 165 -3 165 -2 290 447 289 447 3 -447 2 -447 225 0
225 0 0 725 0 725 -148 0 c-202 0 -290 -28 -378 -122 -17 -18 -174 -246 -348
-505 -175 -260 -320 -473 -324 -473 -4 1 -153 219 -332 486 -216 323 -339 497
-366 520 -22 18 -67 46 -100 61 -56 27 -68 28 -226 31 l-168 4 0 -726z"/>
<path d="M8000 8171 c-117 -38 -205 -102 -262 -190 l-28 -45 0 -470 0 -471 30
-51 c53 -94 169 -170 295 -194 42 -8 280 -10 810 -8 750 3 750 3 791 25 22 12
56 39 74 59 63 72 65 81 65 379 l0 270 -217 3 -218 2 -2 -237 -3 -238 -590 0
-590 0 -3 462 -2 463 815 2 815 3 -24 50 c-39 86 -126 146 -267 185 -71 19
-100 20 -754 19 -624 0 -685 -2 -735 -18z"/>
<path d="M10365 8174 c-82 -29 -153 -116 -169 -206 l-7 -38 991 0 c951 0 990
1 990 18 0 70 -71 176 -144 215 l-41 22 -790 2 c-667 1 -796 -1 -830 -13z"/>
<path d="M12552 7468 l3 -723 218 -3 217 -2 0 520 c0 286 3 520 6 520 3 0 131
-107 283 -238 605 -522 670 -576 770 -643 195 -132 274 -159 464 -159 l107 0
0 725 0 725 -220 0 -220 0 0 -520 0 -521 -117 97 c-267 222 -555 469 -671 575
-241 224 -345 296 -499 348 -51 17 -87 21 -203 21 l-140 0 2 -722z"/>
<path d="M370 7225 l0 -485 873 0 c562 0 885 4 909 10 93 26 176 118 192 212
l7 38 -763 2 -763 3 -3 228 -2 227 440 0 440 0 0 28 c0 44 -44 126 -86 160
-74 61 -81 62 -691 62 l-553 0 0 -485z"/>
<path d="M10190 7342 c0 -415 4 -443 67 -513 20 -22 55 -50 77 -62 41 -22 41
-22 820 -25 891 -3 853 -6 935 76 45 45 81 118 81 164 0 17 -33 18 -762 20
l-763 3 0 225 0 225 443 3 444 2 -7 33 c-12 57 -46 116 -88 152 -75 65 -79 65
-694 65 l-553 0 0 -368z"/>
</g>
</svg>